{"title":"Smokin.Aces.2006.720p.BRRip.XviD.AC3-PsychoLogic","uid":6624674,"size":2844605815,"categoryP":"video","categoryS":"hd___movies","magnet":"?xt=urn:btih:f6160d108194546e691e6060289094e60eb1b9cc&amp;dn=Smokin.Aces.2006.720p.BRRip.XviD.AC3-PsychoLogic&amp;tr=udp%3A%2F%2Ftracker.openbittorrent.com%3A80&amp;tr=udp%3A%2F%2Fopen.demonii.com%3A1337&amp;tr=udp%3A%2F%2Ftracker.coppersurfer.tk%3A6969&amp;tr=udp%3A%2F%2Fexodus.desync.com%3A6969","seeders":0,"leechers":0,"uploader":"PsychoLogic","files":20,"time":1314113265,"description":"Release Information:\n\nSmokin.Aces.2006.720p.BRRip.XviD.AC3-PsychoLogic\n\nSource                           : Smokin'.Aces.2006.1080p.BluRay.DTS.x264-CtrlHD\nSubtitles                        : Bulgarian, Croatian, Czech, Danish, English, Finnish, French, Hebrew, Hungarian, Indonesian, Lithuanian, Polish, Serbian, Slovenian, Spanish, Vietnamese\nLanguage                         : English\nEncoded By                       : PsychoLogic\nSample Included                  : Yes\n\nMovie Information                : http://www.imdb.com/title/tt0475394/\nGenre                            : Action | Crime | Drama\nDirector                         : Joe Carnahan\nCast                             : Jeremy Piven, Ryan Reynolds and Ray Liotta\nPlot                             : When a Las Vegas performer-turned-snitch named Buddy Israel decides to turn state's evidence and testify against the mob, it seems that a whole lot of people would like to make sure he's no longer breathing. \n\nGeneral\nFormat                           : AVI\nFormat/Info                      : Audio Video Interleave\nFormat profile                   : OpenDML\nFile size                        : 2.63 GiB\nDuration                         : 1h 48mn\nOverall bit rate                 : 3 459 Kbps\nWriting application              : VirtualDubMod 1.5.10.2 (build 2542/release)\nWriting library                  : VirtualDubMod build 2542/release\n\nVideo\nID                               : 0\nFormat                           : MPEG-4 Visual\nFormat profile                   : Advanced Simple@L5\nFormat settings, BVOP            : 2\nFormat settings, QPel            : No\nFormat settings, GMC             : No warppoints\nFormat settings, Matrix          : Default (H.263)\nCodec ID                         : XVID\nCodec ID/Hint                    : XviD\nDuration                         : 1h 48mn\nBit rate                         : 3 000 Kbps\nWidth                            : 1 280 pixels\nHeight                           : 544 pixels\nDisplay aspect ratio             : 2.35:1\nFrame rate                       : 23.976 fps\nColor space                      : YUV\nChroma subsampling               : 4:2:0\nBit depth                        : 8 bits\nScan type                        : Progressive\nCompression mode                 : Lossy\nBits/(Pixel*Frame)               : 0.180\nStream size                      : 2.28 GiB (87%)\nWriting library                  : XviD 1.2.1 (UTC 2008-12-04)\n\nAudio\nID                               : 1\nFormat                           : AC-3\nFormat/Info                      : Audio Coding 3\nMode extension                   : CM (complete main)\nCodec ID                         : 2000\nDuration                         : 1h 48mn\nBit rate mode                    : Constant\nBit rate                         : 448 Kbps\nChannel(s)                       : 6 channels\nChannel positions                : Front: L C R, Side: L R, LFE\nSampling rate                    : 48.0 KHz\nBit depth                        : 16 bits\nCompression mode                 : Lossy\nStream size                      : 349 MiB (13%)\nAlignment                        : Split accross interleaves\nInterleave, duration             : 42 ms (1.00 video frame)\nInterleave, preload duration     : 500 ms\n\n","torrent":{"xt":"urn:btih:f6160d108194546e691e6060289094e60eb1b9cc","amp;dn":"Smokin.Aces.2006.720p.BRRip.XviD.AC3-PsychoLogic","amp;tr":["udp%3A%2F%2Ftracker.openbittorrent.com%3A80","udp%3A%2F%2Fopen.demonii.com%3A1337","udp%3A%2F%2Ftracker.coppersurfer.tk%3A6969","udp%3A%2F%2Fexodus.desync.com%3A6969"],"infoHash":"f6160d108194546e691e6060289094e60eb1b9cc","infoHashBuffer":{"type":"Buffer","data":[246,22,13,16,129,148,84,110,105,30,96,96,40,144,148,230,14,177,185,204]},"announce":[],"urlList":[]}}